<svg data-v-fde0c5aa="" xmlns="http://www.w3.org/2000/svg" viewBox="0 0 300 300" class="iconAbove"><!----><defs data-v-fde0c5aa=""><!----></defs><rect data-v-fde0c5aa="" fill="#5E6FD3" x="0" y="0" width="300px" height="300px" class="logo-background-square"></rect><defs data-v-fde0c5aa=""><!----></defs><g data-v-fde0c5aa="" id="1d7c0de8-8eeb-42f8-a299-512c34e706e8" fill="#ffffff" transform="matrix(3.142753408074284,0,0,3.142753408074284,19.78000723708285,164.98694665104824)"><path d="M3.29 14.35L4.58 14.35L7.10 7.87L7.80 7.87L7.80 7.07L5.18 7.07L5.18 7.87L6.09 7.87L4.40 12.77L4.33 12.77L2.56 7.87L3.47 7.87L3.47 7.07L0.07 7.07L0.07 7.87L0.77 7.87ZM10.46 14.52C11.77 14.52 12.29 13.89 12.57 13.27L12.64 13.27L12.64 13.30C12.64 14.01 13.05 14.52 13.94 14.52C14.43 14.52 14.90 14.39 15.16 14.24L15.16 13.58L14.20 13.58L14.20 9.27C14.20 7.78 13.24 6.90 11.47 6.90C9.53 6.90 8.51 7.76 8.51 8.64C8.51 9.20 8.88 9.56 9.44 9.56C10.00 9.56 10.36 9.20 10.36 8.64C10.36 8.23 10.12 8.02 9.91 7.92L9.91 7.87C10.16 7.76 10.53 7.67 10.95 7.67C12.03 7.67 12.52 8.29 12.52 9.41L12.52 10.33L11.51 10.33C9.20 10.33 8.22 11.07 8.22 12.49C8.22 13.75 8.99 14.52 10.46 14.52ZM11.13 13.50C10.39 13.50 9.93 13.17 9.93 12.53L9.93 12.28C9.93 11.48 10.40 11.05 11.68 11.05L12.52 11.05L12.52 12.28C12.52 13.13 11.93 13.50 11.13 13.50ZM16.03 14.35L19.64 14.35L19.64 13.57L18.68 13.57L18.68 3.57L16.03 4.09L16.03 4.73L17.00 4.91L17.00 13.57L16.03 13.57ZM22.50 5.75C23.14 5.75 23.52 5.35 23.52 4.79L23.52 4.72C23.52 4.16 23.14 3.75 22.50 3.75C21.85 3.75 21.48 4.16 21.48 4.72L21.48 4.79C21.48 5.35 21.85 5.75 22.50 5.75ZM20.69 14.35L24.30 14.35L24.30 13.57L23.34 13.57L23.34 6.90L20.69 7.42L20.69 8.06L21.66 8.25L21.66 13.57L20.69 13.57ZM27.54 14.52C28.85 14.52 29.37 13.89 29.65 13.27L29.72 13.27L29.72 13.30C29.72 14.01 30.13 14.52 31.02 14.52C31.51 14.52 31.98 14.39 32.24 14.24L32.24 13.58L31.28 13.58L31.28 9.27C31.28 7.78 30.32 6.90 28.55 6.90C26.61 6.90 25.59 7.76 25.59 8.64C25.59 9.20 25.96 9.56 26.52 9.56C27.08 9.56 27.44 9.20 27.44 8.64C27.44 8.23 27.20 8.02 26.99 7.92L26.99 7.87C27.24 7.76 27.61 7.67 28.03 7.67C29.11 7.67 29.60 8.29 29.60 9.41L29.60 10.33L28.59 10.33C26.28 10.33 25.30 11.07 25.30 12.49C25.30 13.75 26.07 14.52 27.54 14.52ZM28.21 13.50C27.47 13.50 27.01 13.17 27.01 12.53L27.01 12.28C27.01 11.48 27.48 11.05 28.76 11.05L29.60 11.05L29.60 12.28C29.60 13.13 29.01 13.50 28.21 13.50ZM33.29 14.35L36.88 14.35L36.88 13.57L35.94 13.57L35.94 9.27C35.94 8.40 36.72 8.01 37.46 8.01C38.47 8.01 38.91 8.55 38.91 9.70L38.91 13.57L37.97 13.57L37.97 14.35L41.55 14.35L41.55 13.57L40.59 13.57L40.59 9.62C40.59 7.81 39.90 6.90 38.09 6.90C36.90 6.90 36.20 7.57 35.97 8.22L35.90 8.22L35.90 6.90L33.29 7.42L33.29 8.06L34.26 8.25L34.26 13.57L33.29 13.57ZM44.94 14.46C45.75 14.46 46.55 14.32 46.87 14.17L46.87 13.51L45.09 13.51L45.09 7.92L46.87 7.92L46.87 7.07L45.09 7.07L45.09 5.12L44.23 5.12L43.76 6.36C43.58 6.83 43.41 7.07 42.69 7.07L42.45 7.07L42.45 7.92L43.41 7.92L43.41 13.03C43.41 14.03 43.83 14.46 44.94 14.46ZM47.88 14.35L53.21 14.35C55.08 14.35 56.22 13.31 56.22 11.63C56.22 10.08 54.88 9.35 53.82 9.25L53.82 9.18C54.84 9.00 55.83 8.26 55.83 6.89C55.83 5.53 54.81 4.58 52.84 4.58L47.88 4.58L47.88 5.36L48.92 5.36L48.92 13.57L47.88 13.57ZM50.69 9.74L52.70 9.74C53.76 9.74 54.38 10.36 54.38 11.30L54.38 11.94C54.38 12.88 53.76 13.50 52.70 13.50L50.69 13.50ZM50.69 5.43L52.46 5.43C53.44 5.43 53.98 5.98 53.98 6.86L53.98 7.48C53.98 8.36 53.44 8.90 52.46 8.90L50.69 8.90ZM59.81 14.52C61.12 14.52 61.64 13.89 61.92 13.27L61.99 13.27L61.99 13.30C61.99 14.01 62.40 14.52 63.29 14.52C63.78 14.52 64.25 14.39 64.51 14.24L64.51 13.58L63.55 13.58L63.55 9.27C63.55 7.78 62.59 6.90 60.82 6.90C58.88 6.90 57.86 7.76 57.86 8.64C57.86 9.20 58.23 9.56 58.79 9.56C59.35 9.56 59.71 9.20 59.71 8.64C59.71 8.23 59.47 8.02 59.26 7.92L59.26 7.87C59.51 7.76 59.88 7.67 60.30 7.67C61.38 7.67 61.87 8.29 61.87 9.41L61.87 10.33L60.86 10.33C58.55 10.33 57.57 11.07 57.57 12.49C57.57 13.75 58.34 14.52 59.81 14.52ZM60.48 13.50C59.74 13.50 59.28 13.17 59.28 12.53L59.28 12.28C59.28 11.48 59.75 11.05 61.03 11.05L61.87 11.05L61.87 12.28C61.87 13.13 61.28 13.50 60.48 13.50ZM65.56 14.35L69.15 14.35L69.15 13.57L68.21 13.57L68.21 9.27C68.21 8.40 68.99 8.01 69.73 8.01C70.74 8.01 71.18 8.55 71.18 9.70L71.18 13.57L70.24 13.57L70.24 14.35L73.82 14.35L73.82 13.57L72.86 13.57L72.86 9.62C72.86 7.81 72.17 6.90 70.36 6.90C69.17 6.90 68.47 7.57 68.24 8.22L68.17 8.22L68.17 6.90L65.56 7.42L65.56 8.06L66.53 8.25L66.53 13.57L65.56 13.57ZM74.69 14.35L78.27 14.35L78.27 13.57L77.34 13.57L77.34 11.86L78.41 10.75L80.14 13.57L79.37 13.57L79.37 14.35L82.80 14.35L82.80 13.57L82.03 13.57L79.55 9.70L81.38 7.87L82.49 7.87L82.49 7.07L79.20 7.07L79.20 7.87L80.16 7.87L78.44 9.69L77.42 10.84L77.34 10.84L77.34 3.57L74.69 4.09L74.69 4.73L75.66 4.91L75.66 13.57L74.69 13.57Z"></path></g><defs data-v-fde0c5aa=""><!----></defs><g data-v-fde0c5aa="" id="4017e522-2df8-4869-95db-ef4d6e26df92" stroke="none" fill="#25347B" transform="matrix(0.7036518861637286,0,0,0.7036518861637286,114.23619042563554,88.6766197896203)"><g clip-rule="evenodd"><path d="M12.983 10.59l17.018 88.223-5.872-59.049 29.021-1.892-.054-9.883L64.549 1 53.622 18.977z"></path><path d="M59.389 54.548l5.16-53.541-8.74 39.716-19.612 1.045 1.57 20.462-7.766 36.583 12.057-39.899z"></path><path d="M62.8 67.182l.549-10.453-15.979 3.755-.032 11.797-17.337 26.532 21.68-27.616zM65.711 62.394l14.841-4.731 1.509-12.532-15.899 2.095zM72.07 44.502l10.988-1.417 1.581-10.278-8.079-.373L64.549 1l8.43 30.967z"></path><path d="M87.413 31.294l1.256-9.506-9.544-2.694L64.549 1l14.483 22.437-.422 7z"></path></g></g><!----></svg>